<?xml version="1.0" standalone="no"?>
<!DOCTYPE svg PUBLIC "-//W3C//DTD SVG 20010904//EN"
 "http://www.w3.org/TR/2001/REC-SVG-20010904/DTD/svg10.dtd">
<svg version="1.0" xmlns="http://www.w3.org/2000/svg"
 width="600.000000pt" height="600.000000pt" viewBox="0 0 600.000000 600.000000"
 preserveAspectRatio="xMidYMid meet">

<g transform="translate(0.000000,600.000000) scale(0.100000,-0.100000)"
fill="#000000" stroke="none">
<path d="M1110 3808 c-157 -25 -256 -135 -280 -310 -28 -197 56 -370 208 -429
73 -29 194 -31 269 -5 95 32 203 156 203 234 0 21 -3 22 -89 22 l-89 0 -19
-37 c-37 -77 -141 -101 -221 -53 -54 33 -77 91 -77 195 0 77 4 98 25 139 60
116 221 120 275 8 l20 -42 89 0 89 0 -7 42 c-9 57 -53 134 -96 169 -69 58
-192 85 -300 67z"/>
<path d="M4002 3809 c-112 -19 -200 -88 -249 -194 -36 -78 -45 -230 -18 -320
52 -180 216 -279 405 -245 197 36 300 183 288 414 -4 76 -10 103 -37 158 -68
143 -220 216 -389 187z m167 -186 c94 -68 102 -283 13 -376 -31 -32 -91 -51
-135 -42 -95 20 -141 93 -142 220 0 94 14 140 56 183 51 52 147 59 208 15z"/>
<path d="M1614 3797 c-3 -8 -4 -138 -2 -288 3 -261 4 -276 25 -316 59 -110
200 -167 353 -144 117 18 190 69 234 161 20 42 21 61 21 320 l0 275 -90 0 -90
0 -5 -260 c-6 -291 -7 -297 -76 -330 -61 -29 -133 -7 -171 52 -16 24 -19 61
-23 283 l-5 255 -83 3 c-64 2 -84 0 -88 -11z"/>
<path d="M2337 3803 c-4 -3 -7 -37 -7 -74 l0 -68 113 -3 112 -3 3 -303 2 -303
88 3 87 3 3 303 2 302 110 0 110 0 0 75 0 75 -308 0 c-170 0 -312 -3 -315 -7z"/>
<path d="M3045 3797 c-3 -6 -4 -176 -3 -377 l3 -365 210 0 c197 0 213 2 260
23 27 13 58 30 69 40 50 44 71 157 42 225 -16 40 -69 86 -107 94 -30 6 -40 23
-14 23 22 0 81 56 95 90 17 42 8 134 -17 168 -51 69 -147 91 -386 92 -109 0
-149 -3 -152 -13z m354 -162 c11 -11 23 -32 26 -47 6 -22 1 -33 -23 -58 -28
-28 -36 -30 -101 -30 l-71 0 0 81 0 81 75 -4 c58 -3 79 -8 94 -23z m-24 -265
c75 -17 101 -92 49 -141 -22 -21 -37 -24 -110 -28 l-84 -3 0 91 0 91 53 0 c28
0 70 -5 92 -10z"/>
<path d="M4476 3802 c-3 -5 45 -90 105 -190 l110 -181 -110 -179 c-61 -98
-111 -184 -111 -190 0 -8 30 -12 98 -12 l97 0 49 83 c27 45 60 99 74 121 l24
38 71 -118 72 -119 103 -3 c56 -1 102 0 102 4 0 3 -52 89 -115 190 l-115 184
110 181 c60 99 110 185 110 190 0 11 -180 12 -195 1 -6 -4 -39 -56 -74 -115
-35 -59 -68 -106 -72 -105 -5 2 -38 53 -73 113 l-64 110 -95 3 c-52 1 -98 -1
-101 -6z"/>
<path d="M3041 2356 c-17 -20 -2 -46 25 -46 29 0 41 24 24 45 -16 19 -34 19
-49 1z"/>
<path d="M1630 2232 c0 -144 -10 -189 -45 -198 -28 -7 -65 11 -65 31 0 9 -10
15 -25 15 -20 0 -25 -5 -25 -24 0 -62 120 -91 173 -42 31 29 40 86 35 236 -3
100 -4 105 -25 108 -23 3 -23 2 -23 -126z"/>
<path d="M3570 2175 l0 -185 25 0 c24 0 25 2 25 65 l0 65 50 0 c28 0 66 6 85
14 92 39 84 189 -12 215 -21 6 -68 11 -105 11 l-68 0 0 -185z m178 115 c28
-26 29 -73 2 -100 -15 -15 -33 -20 -75 -20 l-55 0 0 70 0 70 53 0 c40 0 59 -5
75 -20z"/>
<path d="M4327 2353 c-4 -3 -7 -87 -7 -185 l0 -178 25 0 c23 0 25 3 25 49 0
31 5 53 15 61 17 14 15 16 77 -67 24 -33 38 -43 60 -43 15 0 28 3 28 8 0 4
-25 38 -55 76 -30 38 -55 72 -55 75 0 4 23 29 50 56 28 27 50 53 50 57 0 4
-10 8 -23 8 -14 0 -43 -20 -77 -55 -30 -30 -58 -55 -62 -55 -4 0 -8 45 -8 100
0 90 -2 100 -18 100 -10 0 -22 -3 -25 -7z"/>
<path d="M1798 2254 c-74 -39 -83 -183 -16 -239 43 -36 116 -35 158 3 49 43
59 124 23 194 -26 53 -108 74 -165 42z m87 -34 c55 -21 68 -118 22 -167 -59
-65 -145 20 -115 112 8 24 23 44 38 52 30 15 24 15 55 3z"/>
<path d="M2037 2263 c-4 -3 -7 -66 -7 -140 l0 -133 24 0 c24 0 24 2 28 100 3
110 14 133 64 133 49 0 64 -32 64 -139 0 -94 0 -94 25 -94 25 0 25 1 25 83 -1
92 -12 153 -32 174 -23 22 -82 27 -116 10 -26 -12 -32 -13 -36 -1 -6 15 -28
19 -39 7z"/>
<path d="M2373 2260 c-43 -17 -64 -68 -60 -139 3 -57 7 -67 35 -92 35 -31 94
-39 133 -19 17 10 19 7 19 -19 0 -16 -7 -37 -16 -45 -23 -23 -87 -21 -109 4
-23 25 -55 26 -55 2 0 -41 77 -77 138 -66 18 4 47 18 63 31 l29 25 0 164 c0
157 -1 164 -20 164 -11 0 -20 -7 -20 -15 0 -19 -9 -19 -34 0 -22 17 -69 19
-103 5z m112 -63 c23 -33 19 -106 -7 -134 -48 -51 -118 -10 -118 69 0 22 5 48
11 59 21 41 87 44 114 6z"/>
<path d="M2620 2129 c0 -140 0 -140 23 -137 21 3 22 9 27 103 3 55 8 105 12
111 13 20 47 23 68 6 17 -15 20 -31 22 -117 3 -95 4 -100 26 -103 21 -3 22 -1
22 90 0 107 13 138 59 138 45 0 51 -15 51 -127 l0 -103 25 0 25 0 0 105 c0 73
-5 115 -15 134 -22 44 -85 55 -126 22 -24 -19 -25 -19 -48 0 -27 22 -72 25
-102 7 -17 -10 -23 -10 -26 0 -3 6 -13 12 -24 12 -18 0 -19 -9 -19 -141z"/>
<path d="M3047 2264 c-4 -4 -7 -67 -7 -141 l0 -133 25 0 26 0 -3 137 c-3 115
-6 138 -18 141 -9 1 -19 0 -23 -4z"/>
<path d="M3157 2263 c-4 -3 -7 -66 -7 -140 l0 -133 25 0 c25 0 25 0 25 94 0
106 15 139 63 139 49 0 56 -16 59 -126 3 -97 4 -102 26 -105 22 -3 22 -2 22
110 -1 73 -5 119 -13 129 -30 39 -96 51 -134 24 -19 -13 -22 -13 -27 0 -6 15
-28 20 -39 8z"/>
<path d="M3924 2260 c-21 -8 -54 -46 -54 -62 0 -15 41 -8 69 13 35 26 78 17
92 -19 12 -31 10 -33 -43 -38 -96 -11 -128 -32 -128 -83 0 -63 66 -99 136 -75
24 8 40 10 42 4 2 -6 12 -10 23 -10 18 0 19 8 19 109 0 60 -3 117 -6 126 -14
36 -98 56 -150 35z m111 -172 c-14 -49 -83 -76 -113 -46 -33 33 2 68 69 68 47
0 50 -1 44 -22z"/>
<path d="M4150 2129 c0 -140 0 -140 23 -137 21 3 22 9 27 106 5 111 11 122 63
122 22 0 27 4 27 25 0 20 -5 25 -26 25 -14 0 -35 -5 -47 -11 -16 -9 -22 -9
-25 0 -2 6 -12 11 -23 11 -18 0 -19 -9 -19 -141z"/>
</g>
</svg>
